<svg width="923" height="636" viewBox="0 0 923 636" fill="none" xmlns="http://www.w3.org/2000/svg">
<rect width="922.21" height="635.74" fill="white"/>
<path d="M189.701 341.49L201.871 288.66H250.571L238.731 340.46C233.471 363.28 208.791 379.95 179.511 379.95C150.231 379.95 132.791 363.28 138.051 340.46L162.071 234.8C167.011 211.98 192.011 195.31 221.291 195.31C250.571 195.31 267.681 211.98 262.751 234.8L250.911 286.35H202.211L214.051 233.78H210.761L186.411 341.49H189.701Z" fill="black"/>
<path d="M325.262 195.31C354.542 195.31 371.652 211.98 366.722 234.8L342.702 340.46C337.442 363.28 312.762 379.95 283.482 379.95C254.202 379.95 236.762 363.28 242.022 340.46L266.042 234.8C270.982 211.98 295.982 195.31 325.262 195.31ZM293.672 341.49L318.022 233.78H314.732L290.382 341.49H293.672Z" fill="black"/>
<path d="M437.462 197.88L437.792 261.99L467.072 197.88H526.292L485.822 377.4H441.402L455.882 313.29H452.592L438.112 377.4H385.472L399.952 313.29H396.662L382.182 377.4H337.762L378.232 197.88H437.452H437.462Z" fill="black"/>
<path d="M578.281 197.88L537.811 377.4H489.111L529.581 197.88H578.281Z" fill="black"/>
<path d="M626.982 197.88L629.612 254.3L642.442 197.88H687.852L647.382 377.4H601.972L599.012 320.98L586.512 377.4H541.102L581.572 197.88H626.982Z" fill="black"/>
<path d="M710.55 341.49L726.67 270.2H775.37L759.581 340.47C754.321 363.29 729.64 379.96 700.36 379.96C671.08 379.96 653.641 363.29 658.901 340.47L682.92 234.81C687.86 211.99 712.861 195.32 742.141 195.32C771.421 195.32 788.53 211.99 783.6 234.81L776.031 267.89H727.331L734.901 233.78H731.61L707.26 341.49H710.55Z" fill="black"/>
<path d="M452.634 500.888C448.035 526.467 426.48 545.148 400.901 545.148C375.322 545.148 360.09 526.467 364.688 500.888L371.299 463.813H413.834L406.937 502.038H409.811L416.996 461.226H415.559C389.98 461.226 375.322 442.545 379.633 416.966L385.669 382.478C389.98 356.899 411.823 338.218 437.401 338.218C462.98 338.218 477.925 356.899 473.614 382.478L467.004 419.553H424.468L431.079 381.328H428.205L421.019 422.139H422.456C448.035 422.139 463.268 440.821 458.669 466.4L452.634 500.888ZM476.605 382.478C480.916 356.899 502.759 338.218 528.338 338.218C553.916 338.218 568.861 356.899 564.55 382.478L543.57 500.888C538.971 526.467 517.416 545.148 491.837 545.148C466.258 545.148 451.026 526.467 455.625 500.888L476.605 382.478ZM497.873 502.038H500.747L522.015 381.328H519.141L497.873 502.038ZM567.541 382.478C571.852 356.899 593.695 338.218 619.274 338.218C644.852 338.218 659.797 356.899 655.486 382.478L634.506 500.888C629.908 526.467 608.352 545.148 582.773 545.148C557.195 545.148 541.962 526.467 546.561 500.888L567.541 382.478ZM588.809 502.038H591.683L612.951 381.328H610.077L588.809 502.038ZM665.662 341.092H705.324L707.623 404.321L718.832 341.092H758.493L723.143 542.274H683.481L680.895 479.045L669.973 542.274H630.312L665.662 341.092Z" fill="#FF1E00"/>
<path d="M762.772 419.24L786.052 282.149H833.761L798.985 419.24H762.772ZM768.233 491.091C760.186 491.091 754.533 489.079 751.276 485.055C748.019 480.84 746.39 476.242 746.39 471.26C746.39 466.661 747.348 462.255 749.264 458.039C751.18 453.633 754.246 450.088 758.461 447.405C762.676 444.723 768.233 443.382 775.131 443.382C781.453 443.382 786.531 445.202 790.363 448.842C794.195 452.291 796.111 457.273 796.111 463.787C796.111 471.643 793.524 478.158 788.351 483.331C783.369 488.504 776.663 491.091 768.233 491.091Z" fill="black"/>
</svg>
